HIERARCHY
ROOT Hips
{
  OFFSET -35.4901 99.2528 17.4586
  CHANNELS 6 Xposition Yposition Zposition Zrotation Xrotation Yrotation
  JOINT LeftUpLeg
  {
    OFFSET 8.64259 1.95398 -2.38835
    CHANNELS 3 Zrotation Xrotation Yrotation
    JOINT LeftLeg
    {
      OFFSET 43.7702 0 0
      CHANNELS 3 Zrotation Xrotation Yrotation
      JOINT LeftFoot
      {
        OFFSET 40.6238 0 0
        CHANNELS 3 Zrotation Xrotation Yrotation
        JOINT LeftToeBase
        {
          OFFSET 12.7242 0 0
          CHANNELS 3 Zrotation Xrotation Yrotation
          End Site
          {
            OFFSET 0 0 0
          }
        }
      }
    }
  }
  JOINT RightUpLeg
  {
    OFFSET -8.2249 1.95398 -2.59336
    CHANNELS 3 Zrotation Xrotation Yrotation
    JOINT RightLeg
    {
      OFFSET 43.5653 0 0
      CHANNELS 3 Zrotation Xrotation Yrotation
      JOINT RightFoot
      {
        OFFSET 40.6238 0 0
        CHANNELS 3 Zrotation Xrotation Yrotation
        JOINT RightToeBase
        {
          OFFSET 12.7242 0 0
          CHANNELS 3 Zrotation Xrotation Yrotation
          End Site
          {
            OFFSET 0 0 0
          }
        }
      }
    }
  }
  JOINT Spine
  {
    OFFSET 0.165834 0.87714 6.61349
    CHANNELS 3 Zrotation Xrotation Yrotation
    JOINT Spine1
    {
      OFFSET 7.38963 1.71661e-005 0
      CHANNELS 3 Zrotation Xrotation Yrotation
      JOINT Spine2
      {
        OFFSET 11.9445 1.14441e-005 0
        CHANNELS 3 Zrotation Xrotation Yrotation
        JOINT Spine3
        {
          OFFSET 14.7254 4.19617e-005 0
          CHANNELS 3 Zrotation Xrotation Yrotation
          JOINT Spine4
          {
            OFFSET 10.9679 0 0
            CHANNELS 3 Zrotation Xrotation Yrotation
            JOINT RightShoulder
            {
              OFFSET 2.46616 -1.6653 3.69651
              CHANNELS 3 Zrotation Xrotation Yrotation
              JOINT RightArm
              {
                OFFSET 13.0012 0 0
                CHANNELS 3 Zrotation Xrotation Yrotation
                JOINT RightForeArm
                {
                  OFFSET 28.7848 1.52588e-005 0
                  CHANNELS 3 Zrotation Xrotation Yrotation
                  JOINT RightHand
                  {
                    OFFSET 26.5688 1.52588e-005 0
                    CHANNELS 3 Zrotation Xrotation Yrotation
                    End Site
                    {
                      OFFSET 0 0 0
                    }
                  }
                }
              }
            }
            JOINT LeftShoulder
            {
              OFFSET 2.38034 -1.29275 -3.7523
              CHANNELS 3 Zrotation Xrotation Yrotation
              JOINT LeftArm
              {
                OFFSET 16.3182 6.10351e-005 0
                CHANNELS 3 Zrotation Xrotation Yrotation
                JOINT LeftForeArm
                {
                  OFFSET 27.0901 0 0
                  CHANNELS 3 Zrotation Xrotation Yrotation
                  JOINT LeftHand
                  {
                    OFFSET 24.5451 1.52588e-005 0
                    CHANNELS 3 Zrotation Xrotation Yrotation
                    End Site
                    {
                      OFFSET 0 0 0
                    }
                  }
                }
              }
            }
            JOINT Neck
            {
              OFFSET 5.0226 -0.0266342 0
              CHANNELS 3 Zrotation Xrotation Yrotation
              JOINT Head
              {
                OFFSET 6.69364 2.86102e-005 0
                CHANNELS 3 Zrotation Xrotation Yrotation
                End Site
                {
                  OFFSET 0 0 0
                }
              }
            }
          }
        }
      }
    }
  }
}
MOTION
Frames:	9
Frame Time:	0.0416667
249.705 90.4164 254.969 -70.5135 41.8208 -104.613 -170.546 57.7878 84.671 -54.2748 6.08485 -4.78728 77.8622 7.689 -3.1119 30.3691 1.67442 -3.07261 -176.776 -3.55031 104.326 -26.847 -0.337494 -23.8742 13.2274 -56.1513 63.4561 76.6343 -3.83481 -22.2941 2.12197 7.67023 -89.4193 11.5263 4.49321 0.696531 -0.136933 4.51947 0.4977 -22.7242 4.07582 2.01679 -2.71157 4.07582 2.01679 93.9045 -17.2099 -103.218 27.7536 -0.970489 -18.9588 -50.0341 21.8875 -29.5116 11.1335 -7.80388 -63.1298 -86.3878 -36.7784 81.7881 -33.6743 43.669 39.1602 89.2123 -33.0415 -76.3252 9.37151 -0.155298 -4.9997 37.7517 -10.9491 -3.34594 -13.3585 -8.91826 1.15023 
242.215 91.7412 247.516 -75.6367 42.3806 -99.9922 -171.603 46.0109 87.2102 -48.7701 9.20727 -4.34679 77.5108 7.50565 -2.66939 26.1311 0.74215 -0.930167 -175.628 -4.24765 109.071 -37.2592 -9.34012 -29.333 -7.29342 -15.1097 49.8068 68.4069 -1.98524 1.70459 1.84099 7.95829 -89.4946 10.9516 3.89921 0.637545 -0.713532 3.92348 0.46505 -23.2881 3.52714 1.7813 -3.27549 3.52712 1.7813 90.9713 -23.3794 -107.452 28.7133 -9.56488 -10.4659 -64.2999 35.0736 -14.8035 28.3482 -17.4386 -62.6775 -85.8797 -44.4246 84.0633 -17.5929 39.6981 15.2429 84.5376 -23.7263 -79.9755 13.6366 0.0846079 -3.09765 34.711 -10.6574 -6.44779 -11.9062 -7.40242 1.35728 
234.881 91.3784 241.285 -80.7028 37.9834 -100.264 -173.676 36.2563 83.1629 -47.175 8.92683 -3.89898 74.6635 6.83908 -1.00274 27.5603 1.84844 -2.78536 176.799 0.603348 88.4844 -67.1992 -18.5065 -10.7703 -3.29083 15.5862 31.0863 66.9998 -2.23906 14.5926 0.84478 8.2423 -89.0546 10.368 2.11567 1.69446 -1.30261 2.18819 1.59972 -23.8327 1.50883 2.25174 -3.82001 1.50882 2.25173 89.7282 -28.2893 -107.982 33.6039 -14.7359 -2.5893 -57.1502 14.8409 -1.2976 10.8265 -2.33231 -79.1407 -86.3315 -49.3228 84.1326 -11.1295 35.4258 -1.74297 80.5869 -17.1762 -81.991 16.131 -0.141563 -3.62043 30.8365 -10.0699 -10.3269 -11.1707 -5.59799 2.28627 
228.463 90.6904 234.813 -79.6186 38.8631 -100.691 -171.483 32.5703 84.5708 -52.8561 3.61281 -4.53262 84.0736 9.26044 -7.53306 22.7488 4.71685 -6.48399 179.507 22.8796 87.3637 -81.5528 -9.72077 -2.88427 11.1793 16.2007 11.8376 79.7333 0.284573 30.1646 0.443359 7.96123 -88.886 10.9344 1.39802 2.08242 -0.737366 1.4883 2.01889 -23.2616 0.707719 2.40613 -3.24891 0.707717 2.40614 89.7561 -31.1254 -106.815 39.8489 -14.8885 6.42413 -21.7164 -25.0772 0.878361 -31.1153 13.9432 -68.9983 -86.7362 -51.1579 83.807 -5.75304 34.954 -19.6885 71.911 -15.6777 -82.7695 -0.944851 0.113008 -15.0929 25.836 -8.08159 -13.3762 -9.52722 -3.04114 2.28387 
222.725 89.2838 228.839 -79.6275 39.1043 -101.743 -170.5 27.377 85.187 -54.8968 5.50091 -4.683 86.2846 10.5328 -5.62891 35.9448 6.68132 -13.7288 -177.225 32.7145 86.3192 -95.9011 -3.89302 -2.43939 51.475 2.42265 -4.62076 66.3073 -2.40406 18.5287 -0.137536 8.01096 -88.7465 10.842 0.305199 2.46458 -0.831179 0.413327 2.44877 -23.3479 -0.449411 2.44242 -3.33527 -0.449388 2.44243 91.6267 -30.2624 -103.433 44.6553 -9.27864 15.4355 -15.1062 -39.69 -13.2995 -40.2702 9.90835 -39.6683 -87.1863 -49.628 82.8839 1.45381 30.2498 -42.444 69.1875 -14.4634 -83.7983 -12.5106 1.57576 -22.9901 25.4737 -5.53041 -13.8442 -8.3141 -0.346907 0.904558 
216.027 87.5922 222.005 -82.0739 37.2108 -98.5768 -170.87 19.5849 88.9162 -56.4516 7.35536 -3.56431 94.265 12.7483 -7.72735 35.5706 5.71392 -11.7127 -176.485 36.9278 86.3527 -97.6962 -7.32234 -1.78105 79.0842 -11.4952 -10.0205 30.4196 -3.18589 8.47839 -1.09309 7.94584 -88.7903 10.9973 -1.61609 2.54163 -0.675265 -1.50269 2.61023 -23.2042 -2.30488 1.93882 -3.19149 -2.3049 1.93882 92.5661 -30.3336 -101.404 41.7983 0.17917 24.7542 -79.0817 -75.1049 -84.307 -35.2934 -0.869076 -14.6539 -88.0749 -43.7563 80.4509 -0.0241198 21.5097 -51.9019 73.3473 -15.4607 -85.4175 0.548389 -0.303733 -14.3536 21.2063 -2.31927 -16.7283 -7.51305 2.81785 2.97017 
208.404 87.8242 214.377 -82.6989 36.8381 -94.2954 -170.524 9.33804 95.513 -50.2103 11.2688 -2.13156 94.0617 13.319 -5.36898 40.6787 4.08546 -10.3512 -177.601 45.1667 89.3527 -91.9914 -2.42497 -1.48291 85.1248 -13.5272 -4.81392 13.1027 -3.16048 7.52619 -2.24901 7.73077 -88.8053 11.5395 -3.91683 2.70943 -0.127669 -3.79371 2.87925 -22.7116 -4.55021 1.4053 -2.69896 -4.55021 1.4053 89.8653 -33.1732 -105.752 39.179 -0.807178 35.978 -28.5485 -36.3808 -47.5513 -24.9474 2.10874 -21.5021 -85.8289 -33.3912 82.0989 -4.13823 10.3788 -53.2105 75.3711 -17.8733 -88.826 8.15908 -0.141166 -4.37453 18.8689 2.20499 -22.2643 -10.1133 8.26058 6.08236 
200.083 89.5377 206.183 -83.4244 38.0146 -90.7014 -169.597 -3.06016 99.4012 -36.6869 16.2342 -0.421979 82.035 10.2504 1.94792 51.9943 3.00967 -12.0149 -179.755 49.9292 93.4275 -80.1786 1.63028 -1.2769 82.6838 -11.7556 -3.56201 13.1395 -2.39722 6.18072 -2.52692 8.02129 -90.0258 10.8396 -5.04314 0.428443 -0.821818 -5.01938 0.650528 -23.4323 -4.93812 -1.11083 -3.41961 -4.93812 -1.11084 95.3818 -19.1754 -98.8645 39.4977 1.9748 39.3546 -47.5182 -45.8337 -62.2666 -19.1091 0.123584 -19.8015 -86.132 -29.9154 80.7337 -7.10217 2.27464 -60.21 70.5066 -16.1202 -90.7942 10.1757 -0.210155 -5.32251 22.1995 6.77908 -9.57411 -10.409 9.6561 1.41434 
191.389 91.4632 197.826 -83.6333 39.6208 -87.917 -169.031 -13.9653 100.984 -24.2614 18.0261 1.58916 62.164 1.61574 4.44679 60.0689 0.94031 -9.16956 178.714 50.3863 96.7427 -63.1975 0.463851 -0.881659 76.6923 -8.49479 -3.18482 15.5431 -2.04833 5.52769 -3.04131 7.98133 -90.4228 10.9173 -6.25058 -0.250731 -0.738512 -6.25552 0.0256961 -23.3843 -5.88522 -2.12424 -3.37164 -5.88523 -2.12424 94.101 -17.7267 -102.517 35.9283 4.42231 46.3073 -36.9396 -36.3292 -57.2566 -23.9784 0.841285 -17.897 -84.0945 -21.7992 82.9592 -11.3201 -0.893424 -55.8775 67.4971 -17.0927 -93.0252 13.6202 -0.158823 -4.85601 25.5427 9.63827 -10.9439 -16.911 12.5836 5.09928 
